<svg width="608" height="237" viewBox="0 0 608 237" fill="none" xmlns="http://www.w3.org/2000/svg">
<path d="M0 185.757V150.527L75.3906 6.4054H115.492L40.1014 150.527H113.888V96.0811H150.781V150.527H182.862V185.757H150.781V230.595H113.888V185.757H0Z" fill="white"/>
<path d="M227.763 203.692C207.445 181.486 197.286 153.089 197.286 118.5C197.286 83.9108 207.445 55.5135 227.763 33.3081C248.082 11.1027 272.677 0 301.55 0C330.423 0 355.019 11.1027 375.337 33.3081C395.655 55.5135 405.814 83.9108 405.814 118.5C405.814 153.089 395.655 181.486 375.337 203.692C355.019 225.897 330.423 237 301.55 237C272.677 237 248.082 225.897 227.763 203.692ZM254.07 57.0081C241.879 71.527 235.784 92.0243 235.784 118.5C235.784 144.976 241.879 165.473 254.07 179.992C266.475 194.511 282.301 201.77 301.55 201.77C320.799 201.77 336.518 194.511 348.709 179.992C361.114 165.473 367.316 144.976 367.316 118.5C367.316 92.0243 361.114 71.527 348.709 57.0081C336.518 42.4892 320.799 35.2297 301.55 35.2297C282.301 35.2297 266.475 42.4892 254.07 57.0081Z" fill="white"/>
<path d="M425.138 185.757V150.527L500.528 6.4054H540.63L465.239 150.527H539.026V96.0811H575.919V150.527H608V185.757H575.919V230.595H539.026V185.757H425.138Z" fill="white"/>
</svg>
