<svg width="64" height="65" viewBox="0 0 64 65" fill="none" xmlns="http://www.w3.org/2000/svg">
<path d="M32 32.5L56 8.5" stroke="#35E151" stroke-linecap="round" stroke-linejoin="round"/>
<path d="M48.975 15.5252C44.7202 11.2576 39.0183 8.74285 32.9978 8.4787C26.9773 8.21455 21.077 10.2203 16.4648 14.0988C11.8526 17.9774 8.8645 23.4462 8.09203 29.4228C7.31955 35.3993 8.81897 41.4481 12.2935 46.3719C15.768 51.2957 20.9644 54.7357 26.8542 56.0109C32.744 57.2862 38.898 56.3038 44.098 53.2582C49.2981 50.2127 53.1653 45.3259 54.9342 39.5651C56.7031 33.8042 56.2448 27.5892 53.65 22.1502" stroke="#35E151" stroke-linecap="round" stroke-linejoin="round"/>
<path d="M40.4749 24.0248C38.493 22.0485 35.8814 20.8288 33.0937 20.5776C30.306 20.3265 27.5185 21.0597 25.2152 22.6501C22.912 24.2404 21.2385 26.5872 20.4856 29.283C19.7327 31.9788 19.9478 34.8531 21.0937 37.4068C22.2396 39.9604 24.2437 42.032 26.7581 43.2617C29.2724 44.4914 32.1381 44.8015 34.8573 44.1381C37.5765 43.4748 39.9774 41.8799 41.6431 39.6305C43.3087 37.3811 44.1337 34.6193 43.9749 31.8248" stroke="#35E151" stroke-linecap="round" stroke-linejoin="round"/>
</svg>
