<svg width="24" height="24" viewBox="0 0 24 24" fill="none" xmlns="http://www.w3.org/2000/svg">
<path d="M20.25 10.5V6" stroke="black" stroke-linecap="round" stroke-linejoin="round"/>
<path d="M22.5 8.25H18" stroke="black" stroke-linecap="round" stroke-linejoin="round"/>
<path d="M15.75 2.25V5.25" stroke="black" stroke-linecap="round" stroke-linejoin="round"/>
<path d="M17.25 3.75H14.25" stroke="black" stroke-linecap="round" stroke-linejoin="round"/>
<path d="M20.3156 14.3064C18.8431 14.7194 17.2872 14.7329 15.8078 14.3457C14.3283 13.9584 12.9786 13.1844 11.8972 12.103C10.8158 11.0216 10.0418 9.67187 9.65454 8.19241C9.2673 6.71295 9.28083 5.15707 9.69374 3.68457C8.24199 4.08864 6.92144 4.86603 5.86363 5.93929C4.80581 7.01255 4.04765 8.34423 3.66467 9.80169C3.28168 11.2591 3.28724 12.7915 3.68078 14.2462C4.07432 15.7008 4.84211 17.0269 5.90767 18.0925C6.97324 19.1581 8.29939 19.9259 9.75403 20.3194C11.2087 20.713 12.741 20.7185 14.1985 20.3355C15.656 19.9525 16.9876 19.1944 18.0609 18.1366C19.1342 17.0787 19.9115 15.7582 20.3156 14.3064V14.3064Z" stroke="black" stroke-linecap="round" stroke-linejoin="round"/>
</svg>
