<svg width="16" height="17" viewBox="0 0 16 17" fill="none" xmlns="http://www.w3.org/2000/svg">
<path d="M8 2C6.71442 2 5.45772 2.38122 4.3888 3.09545C3.31988 3.80968 2.48676 4.82484 1.99479 6.01256C1.50282 7.20028 1.37409 8.50721 1.6249 9.76809C1.8757 11.029 2.49477 12.1872 3.40381 13.0962C4.31285 14.0052 5.47104 14.6243 6.73192 14.8751C7.99279 15.1259 9.29973 14.9972 10.4874 14.5052C11.6752 14.0132 12.6903 13.1801 13.4046 12.1112C14.1188 11.0423 14.5 9.78558 14.5 8.5C14.4967 6.77711 13.8108 5.12573 12.5925 3.90746C11.3743 2.68918 9.72289 2.0033 8 2ZM8 12.5C7.85167 12.5 7.70666 12.456 7.58333 12.3736C7.45999 12.2912 7.36386 12.1741 7.30709 12.037C7.25033 11.9 7.23548 11.7492 7.26441 11.6037C7.29335 11.4582 7.36478 11.3246 7.46967 11.2197C7.57456 11.1148 7.7082 11.0434 7.85368 11.0144C7.99917 10.9855 8.14997 11.0003 8.28701 11.0571C8.42406 11.1139 8.54119 11.21 8.6236 11.3333C8.70602 11.4567 8.75 11.6017 8.75 11.75C8.75 11.9489 8.67098 12.1397 8.53033 12.2803C8.38968 12.421 8.19892 12.5 8 12.5ZM8.5 9.44375V9.5C8.5 9.63261 8.44732 9.75979 8.35356 9.85355C8.25979 9.94732 8.13261 10 8 10C7.86739 10 7.74022 9.94732 7.64645 9.85355C7.55268 9.75979 7.5 9.63261 7.5 9.5V9C7.5 8.86739 7.55268 8.74021 7.64645 8.64645C7.74022 8.55268 7.86739 8.5 8 8.5C8.24723 8.5 8.4889 8.42669 8.69447 8.28934C8.90003 8.15199 9.06024 7.95676 9.15485 7.72835C9.24946 7.49995 9.27422 7.24861 9.22598 7.00614C9.17775 6.76366 9.0587 6.54093 8.88389 6.36612C8.70907 6.1913 8.48634 6.07225 8.24387 6.02402C8.00139 5.97579 7.75006 6.00054 7.52165 6.09515C7.29324 6.18976 7.09802 6.34998 6.96067 6.55554C6.82331 6.7611 6.75 7.00277 6.75 7.25C6.75 7.38261 6.69732 7.50979 6.60356 7.60355C6.50979 7.69732 6.38261 7.75 6.25 7.75C6.11739 7.75 5.99022 7.69732 5.89645 7.60355C5.80268 7.50979 5.75 7.38261 5.75 7.25C5.75 6.82644 5.86956 6.41149 6.09492 6.05286C6.32029 5.69423 6.6423 5.4065 7.02393 5.22275C7.40555 5.03901 7.8313 4.96671 8.25219 5.01419C8.67308 5.06166 9.07202 5.22697 9.40313 5.49111C9.73424 5.75524 9.98407 6.10747 10.1239 6.50729C10.2637 6.90711 10.2878 7.33827 10.1935 7.75119C10.0991 8.1641 9.89015 8.54201 9.59057 8.84143C9.29098 9.14085 8.91297 9.34963 8.5 9.44375Z" fill="black" fill-opacity="0.3"/>
</svg>
