<svg width="24" height="24" viewBox="0 0 24 24" fill="none" xmlns="http://www.w3.org/2000/svg">
<path d="M18.75 5.25H5.25C4.00736 5.25 3 6.25736 3 7.5V18C3 19.2426 4.00736 20.25 5.25 20.25H18.75C19.9926 20.25 21 19.2426 21 18V7.5C21 6.25736 19.9926 5.25 18.75 5.25Z" stroke="#0C1033" stroke-linecap="round" stroke-linejoin="round"/>
<path d="M15.375 13.5H8.625C7.58947 13.5 6.75 14.3395 6.75 15.375C6.75 16.4105 7.58947 17.25 8.625 17.25H15.375C16.4105 17.25 17.25 16.4105 17.25 15.375C17.25 14.3395 16.4105 13.5 15.375 13.5Z" stroke="#0C1033" stroke-linecap="round" stroke-linejoin="round"/>
<path d="M13.875 13.5V17.25" stroke="#0C1033" stroke-linecap="round" stroke-linejoin="round"/>
<path d="M10.125 13.5V17.25" stroke="#0C1033" stroke-linecap="round" stroke-linejoin="round"/>
<path d="M12 5.25V1.5" stroke="#0C1033" stroke-linecap="round" stroke-linejoin="round"/>
<path d="M7.875 10.875C8.28921 10.875 8.625 10.5392 8.625 10.125C8.625 9.71079 8.28921 9.375 7.875 9.375C7.46079 9.375 7.125 9.71079 7.125 10.125C7.125 10.5392 7.46079 10.875 7.875 10.875Z" fill="#0C1033"/>
<path d="M16.125 10.875C16.5392 10.875 16.875 10.5392 16.875 10.125C16.875 9.71079 16.5392 9.375 16.125 9.375C15.7108 9.375 15.375 9.71079 15.375 10.125C15.375 10.5392 15.7108 10.875 16.125 10.875Z" fill="#0C1033"/>
</svg>
