<svg width="24" height="24" viewBox="0 0 24 24" fill="none" xmlns="http://www.w3.org/2000/svg">
<path d="M12 21C16.9706 21 21 16.9706 21 12C21 7.02944 16.9706 3 12 3C7.02944 3 3 7.02944 3 12C3 16.9706 7.02944 21 12 21Z" stroke="white" stroke-linecap="round" stroke-linejoin="round"/>
<path d="M8.625 10.875C9.03921 10.875 9.375 10.5392 9.375 10.125C9.375 9.71079 9.03921 9.375 8.625 9.375C8.21079 9.375 7.875 9.71079 7.875 10.125C7.875 10.5392 8.21079 10.875 8.625 10.875Z" fill="white"/>
<path d="M15.375 10.875C15.7892 10.875 16.125 10.5392 16.125 10.125C16.125 9.71079 15.7892 9.375 15.375 9.375C14.9608 9.375 14.625 9.71079 14.625 10.125C14.625 10.5392 14.9608 10.875 15.375 10.875Z" fill="white"/>
<path d="M15.9001 14.25C15.5036 14.9331 14.9347 15.5 14.2503 15.8941C13.5658 16.2882 12.7899 16.4956 12.0001 16.4956C11.2103 16.4956 10.4344 16.2882 9.74993 15.8941C9.0655 15.5 8.49658 14.9331 8.1001 14.25" stroke="white" stroke-linecap="round" stroke-linejoin="round"/>
</svg>
