<svg width="128" height="21" viewBox="0 0 128 21" fill="none" xmlns="http://www.w3.org/2000/svg">
<g clip-path="url(#clip0_141_1344)">
<path d="M-1.71317e-06 18.8494V19.3173C-1.71317e-06 19.7035 0.313309 20.0168 0.699582 20.0168H13.9938C16.6977 20.0168 18.8888 17.8258 18.8888 15.1219V11.1733C18.8888 10.8536 18.6076 10.6089 18.29 10.6519C12.6161 11.4158 4.80266 13.6004 0.607305 17.4696C0.221032 17.8258 -0.00214767 18.3237 -0.00214767 18.8473L-1.71317e-06 18.8494Z" fill="#0C1033"/>
<path d="M0 6.02287V16.3385C0 16.5316 0.227472 16.6325 0.369105 16.5016C1.15667 15.7741 2.0966 15.0144 3.20607 14.2591L4.33913 11.7118L3.81337 11.5509L6.08165 10.2504L4.87992 13.2097C5.41855 12.8985 5.98938 12.5917 6.59239 12.2912L7.8113 9.55083L7.10957 9.33623L10.1289 7.60444L8.59457 11.3835C9.04952 11.1946 9.52163 11.0101 10.0088 10.832L12.3672 5.5293L11.2448 5.18594L16.0797 2.41121L13.0539 9.86629C14.6913 9.41778 16.4831 9.03365 18.4402 8.73966C18.6978 8.70103 18.8909 8.47999 18.8909 8.21819V1.82751C18.8909 1.44124 18.5776 1.12793 18.1913 1.12793H4.89494C2.19103 1.12793 0 3.31896 0 6.02287Z" fill="#0C1033"/>
</g>
<g clip-path="url(#clip1_141_1344)">
<path d="M113.44 17.8369H122.706C124.453 17.8369 125.83 16.4886 125.83 14.7979V13.2582H128V14.7979C128 17.7425 125.592 20.0047 122.706 20.0047H113.44V17.8346V17.8369ZM113.079 7.761V6.38432C113.079 3.45623 115.468 1.12793 118.373 1.12793H127.927V3.29802H118.373C116.642 3.29802 115.249 4.67942 115.249 6.38668V7.76336H113.079V7.761Z" fill="#0C1033"/>
</g>
<g clip-path="url(#clip2_141_1344)">
<path d="M80.0879 1.12793V10.6938V17.9267H93.1085V20.0968H77.9179V10.6938V1.12793H80.0879Z" fill="#0C1033"/>
</g>
<g clip-path="url(#clip3_141_1344)">
<path d="M74.612 0.891602L67.9955 10.4669L74.6002 20.0234H71.9626L66.6755 12.3749L61.3884 20.0234H58.7507L65.3578 10.4669L58.7389 0.891602H61.3766L66.6755 8.55895L71.9744 0.891602H74.612Z" fill="#0C1033"/>
</g>
<path d="M38.7689 20.1062H34.2847C29.0425 20.1062 24.7944 15.8581 24.7944 10.6159C24.7944 5.37366 29.0425 1.12793 34.2847 1.12793H38.7689V3.29802H34.2847C30.2421 3.29802 26.9645 6.57559 26.9645 10.6182C26.9645 14.6609 30.2421 17.9385 34.2847 17.9385H38.7689V20.1086V20.1062Z" fill="#0C1033"/>
<path d="M55.433 3.29802H42.0748V1.12793H55.433V3.29802ZM55.433 11.7163H42.0748V9.54619H55.433V11.7163ZM55.433 20.1062H42.0748V17.9361H55.433V20.1062Z" fill="#0C1033"/>
<path d="M109.773 3.29802H96.4146V1.12793H109.773V3.29802ZM109.773 11.7163H96.4146V9.54619H109.773V11.7163ZM109.773 20.1062H96.4146V17.9361H109.773V20.1062Z" fill="#0C1033"/>
<defs>
<clipPath id="clip0_141_1344">
<rect width="18.8909" height="18.8909" fill="white" transform="translate(0 1.12793)"/>
</clipPath>
<clipPath id="clip1_141_1344">
<rect width="14.9214" height="18.8791" fill="white" transform="translate(113.079 1.12793)"/>
</clipPath>
<clipPath id="clip2_141_1344">
<rect width="15.1906" height="18.9688" fill="white" transform="translate(77.9179 1.12793)"/>
</clipPath>
<clipPath id="clip3_141_1344">
<rect width="15.8731" height="19.1318" fill="white" transform="translate(58.7389 0.891602)"/>
</clipPath>
</defs>
</svg>
