<svg width="20" height="20" viewBox="0 0 20 20" fill="none" xmlns="http://www.w3.org/2000/svg">
<ellipse cx="10" cy="10" rx="10" ry="10" fill="#26A17B"/>
<path d="M11.1043 10.8452V10.8436C11.0343 10.8484 10.6729 10.8693 9.86861 10.8693C9.22551 10.8693 8.77452 10.8516 8.61496 10.8436V10.8452C6.14187 10.7378 4.29722 10.3145 4.29722 9.80629C4.29722 9.29965 6.14349 8.87477 8.61496 8.76735V10.4236C8.77615 10.4348 9.24016 10.462 9.88001 10.462C10.6485 10.462 11.0327 10.43 11.1043 10.4236V8.76896C13.5726 8.87798 15.4123 9.30125 15.4123 9.80789C15.4123 10.3145 13.5709 10.7378 11.1043 10.8468V10.8452ZM11.1043 8.59741V7.11597H14.5478V4.85693H5.17314V7.11597H8.61659V8.59741C5.81787 8.72407 3.71436 9.26918 3.71436 9.92333C3.71436 10.5775 5.8195 11.1226 8.61659 11.2508V15.9998H11.106V11.2508C13.8998 11.1242 16.0001 10.5791 16.0001 9.92493C16.0001 9.27239 13.8998 8.72567 11.106 8.59901" fill="white"/>
</svg>
